<svg width="49" height="24" viewBox="0 0 49 24" fill="none" xmlns="http://www.w3.org/2000/svg">
<path d="M10.0996 7.55032C10.571 7.39417 11.0739 7.31089 11.5957 7.31089C13.8796 7.31089 15.7864 8.92236 16.2223 11.0648L19.4596 10.4089C18.7178 6.76956 15.4784 4.02963 11.5957 4.02963C10.7051 4.02963 9.85231 4.17329 9.05188 4.43979L10.0996 7.55032Z" fill="#A9A9B2"/>
<path d="M6.27961 17.9729L8.46928 15.514C7.49283 14.6541 6.87679 13.3987 6.87679 11.9996C6.87679 10.6025 7.49283 9.3471 8.46928 8.48931L6.27961 6.02837C4.62007 7.48994 3.57239 9.624 3.57239 11.9996C3.57239 14.3772 4.62007 16.5113 6.27961 17.9729" fill="#E1E1E6"/>
<path d="M16.2223 12.9407C15.7843 15.081 13.8796 16.6904 11.5978 16.6904C11.0739 16.6904 10.5689 16.6071 10.0996 16.4489L9.05188 19.5635C9.85231 19.828 10.7072 19.9716 11.5978 19.9716C15.4763 19.9716 18.7137 17.2359 19.4596 13.6007L16.2223 12.9407Z" fill="#323238"/>
<path d="M22.2904 15.616C22.1836 15.4453 22.0411 15.1726 21.9531 14.9706C21.4397 13.788 21.4166 12.5638 21.8483 11.3896C22.3239 10.1008 23.2333 9.116 24.4088 8.61215C25.8861 7.9813 27.5184 8.10414 28.9349 8.93903C29.8338 9.4512 30.4708 10.2424 30.9548 11.3625C31.0156 11.5062 31.07 11.6581 31.1245 11.7893L22.2904 15.616ZM25.2407 10.513C24.1909 10.9607 23.6503 11.9392 23.7635 13.0843L28.2057 11.1834C27.4409 10.2923 26.4476 9.99669 25.2407 10.513V10.513ZM28.7588 14.6479C28.7567 14.6479 28.7567 14.65 28.7567 14.65L28.6645 14.5875C28.3984 15.0143 27.9856 15.362 27.4639 15.5869C26.4707 16.0158 25.5508 15.9054 24.8887 15.3287L24.8279 15.4203C24.8279 15.4203 24.8279 15.4183 24.8258 15.4183L23.6985 17.0943C23.9793 17.2879 24.2789 17.4503 24.5932 17.5815C25.8379 18.0957 27.1119 18.0707 28.367 17.5294C29.2743 17.138 29.9867 16.5425 30.4729 15.7868L28.7588 14.6479ZM34.211 6.14705V15.462L35.6694 16.0491L34.8417 17.9687L33.2325 17.3025C32.8721 17.1463 32.6248 16.909 32.4404 16.6404C32.2623 16.3677 32.1303 15.9908 32.1303 15.487V6.14705H34.211ZM37.9869 13.0906C37.9869 12.2973 38.341 11.5853 38.8984 11.1022L37.4023 9.44496C36.3881 10.3361 35.749 11.6373 35.749 13.0864C35.7469 14.5376 36.386 15.8409 37.3981 16.732L38.8921 15.0747C38.3368 14.5896 37.9869 13.8817 37.9869 13.0906V13.0906ZM40.6438 15.7326C40.3505 15.7326 40.0655 15.6827 39.8015 15.5952L39.0869 17.7043C39.5752 17.8667 40.0969 17.9562 40.6417 17.9562C43.0095 17.9583 44.9854 16.2885 45.4443 14.0712L43.2484 13.6256C42.999 14.8311 41.9283 15.7347 40.6438 15.7326V15.7326ZM40.6501 8.2249C40.1074 8.2249 39.5856 8.31234 39.0974 8.47266L39.8057 10.5838C40.0718 10.4964 40.3546 10.4485 40.648 10.4485C41.9346 10.4506 43.0074 11.3583 43.2504 12.5659L45.4464 12.1245C44.9959 9.903 43.02 8.22698 40.6501 8.2249V8.2249Z" fill="white"/>
</svg>



