<svg width="93" height="23" viewBox="0 0 93 23" fill="none" xmlns="http://www.w3.org/2000/svg">
<path d="M20.091 3.42174C20.579 3.08607 21.2075 1.55736 20.4895 0.920896C20.262 0.719407 19.8817 0.660926 19.3511 0.750526C18.859 0.833504 18.5759 1.00057 18.3836 1.26208C18.0747 1.68249 17.7911 2.95079 18.2698 3.42196C18.7361 3.88055 19.7805 3.63515 20.091 3.42174V3.42174ZM13.1474 0.920896C12.7978 3.18627 12.4039 5.4075 12.009 7.62763C9.47357 7.65433 6.88485 7.75254 4.43933 7.57069C4.9012 5.39867 5.23247 3.09601 5.69148 0.920896H2.95955C1.98165 6.46151 1.09193 12.0906 0 17.5174H2.78894C3.22629 14.7338 3.63557 11.9216 4.2117 9.27595C6.5896 9.21747 9.43953 9.11551 11.7246 9.33289C11.2535 12.0833 10.6842 14.7351 10.2448 17.5174H13.0338C13.9301 11.8949 14.874 6.32049 15.9936 0.920896H13.1474V0.920896ZM52.5897 5.69528C50.4198 4.82003 48.7137 6.29908 47.9228 7.68457C48.1022 7.06818 48.176 6.34631 48.3214 5.69528H46.1586C45.6297 9.79016 44.8505 13.6346 44.1097 17.5174H46.5572C46.9002 15.2127 47.0483 12.1058 47.8092 9.90117C48.4173 8.13941 50.0089 6.6385 52.3055 7.45726C52.3373 6.80733 52.5236 6.31122 52.5897 5.69528V5.69528ZM53.9554 14.7325C53.7298 14.1503 53.6717 13.1894 53.728 12.4587C53.8545 10.8166 54.4538 8.81714 55.3787 7.91188C56.6549 6.66256 59.1744 6.86934 61.1842 7.57091C61.2463 6.8945 61.3824 6.29114 61.4688 5.63856C58.1729 5.10096 55.0454 5.43553 53.3871 7.17323C51.7634 8.8743 50.6995 12.784 51.4516 15.244C52.332 18.1227 56.2803 18.2792 59.4768 17.1766C59.6182 16.598 59.6931 15.9529 59.8182 15.3579C58.0712 16.2638 54.7318 16.7348 53.9554 14.7325V14.7325ZM81.4458 5.75199C79.2827 4.67194 77.4818 6.48424 76.7788 7.57069C76.979 7.01323 76.9905 6.26664 77.1771 5.69506H75.0144C74.4312 9.75441 73.7284 13.6941 72.9088 17.5171H75.4131C75.4288 15.9502 75.7371 14.7912 75.9819 13.2548C76.5052 9.97355 77.2738 6.37544 81.1048 7.45704C81.2314 6.90223 81.2842 6.27282 81.4458 5.75199ZM17.5867 5.69528C17.5204 5.70477 17.5248 5.7851 17.5297 5.86565C16.9905 9.893 16.2605 13.7303 15.4808 17.5171H17.9281C18.5162 13.4626 19.1898 9.494 20.034 5.69506L17.5867 5.69528V5.69528ZM39.1007 5.46797C37.3323 5.60413 35.8375 6.11216 34.7752 7.22995C33.4722 8.60065 32.4172 11.6314 32.7263 14.3915C33.1674 18.3291 38.0768 18.1876 42.0034 17.2333C42.0704 16.5421 42.2379 15.9513 42.3449 15.3008C40.7274 15.9052 37.9188 16.7489 36.2547 15.6989C34.9986 14.9055 34.9913 12.8975 35.401 11.1518C38.0401 11.0679 40.7831 11.0838 43.426 11.1518C43.5935 9.91463 44.0733 8.56578 43.6536 7.34382C43.1002 5.73059 41.1179 5.3126 39.1007 5.46797ZM41.4342 9.78751H35.6854C35.8675 8.46779 37.0565 7.0172 38.9298 6.9457C40.6929 6.87839 41.9553 7.5921 41.4342 9.78751V9.78751ZM29.8236 5.69528C27.7522 4.91823 25.2278 5.84579 24.1332 6.7281C24.1372 6.76694 24.1071 6.77224 24.0749 6.77511C24.0934 6.75944 24.1138 6.74377 24.1332 6.7281C24.133 6.72485 24.1326 6.72161 24.1321 6.71839C24.1504 6.33903 24.2841 6.07464 24.3027 5.69528H22.1969C21.3193 11.5257 20.2786 17.1929 19.1805 22.8031H21.6278C21.982 20.6183 22.2159 18.3132 22.7093 16.2669C23.2682 18.4191 26.9177 18.0079 28.4578 17.1764C31.6351 15.4603 34.0859 7.29395 29.8236 5.69528V5.69528ZM27.8886 15.3008C26.5792 16.6856 23.3602 16.6648 23.1076 14.3344C22.9977 13.3205 23.3759 12.2575 23.5633 11.2085C23.7522 10.1468 23.8886 9.12809 24.0751 8.19612C25.3648 6.6235 29.1546 6.43348 29.5392 9.04864C29.8726 11.3191 28.9727 14.1538 27.8886 15.3008V15.3008ZM90.552 0.579932C90.3423 2.4165 90.0619 4.18268 89.6986 5.86565C83.6953 3.96795 80.0137 8.37885 80.08 13.823C80.0931 14.8759 80.2745 15.92 80.9335 16.6648C82.0703 17.9479 85.3238 18.2553 86.9669 17.1762C87.2846 16.9674 87.6097 16.5874 87.8203 16.3239C87.9788 16.1255 88.2301 15.6058 88.2758 15.7554C88.1892 16.332 88.0601 16.8665 88.0484 17.5171H90.2681C90.6961 11.389 92.0186 6.15497 93 0.579712H90.5523V0.579932H90.552ZM85.0884 16.21C83.4409 16.2453 82.6217 15.227 82.5839 13.5388C82.5183 10.582 83.817 7.29704 86.4544 7.00242C87.6822 6.86537 88.5713 7.1505 89.4709 7.45726C88.6449 10.7786 88.943 16.1275 85.0884 16.21V16.21ZM63.9727 5.69528C63.8522 6.37059 63.6673 6.98167 63.5174 7.62763C64.9616 7.26592 69.4586 6.15718 69.892 8.08225C70.0359 8.72181 69.7877 9.40131 69.6073 9.90117C65.5411 9.5165 62.2266 10.1911 61.3545 13.0839C60.7707 15.0216 61.42 16.9283 62.6637 17.4606C65.0591 18.4855 67.9727 17.3115 68.9813 15.6989C68.8765 16.257 68.7773 16.8213 68.8109 17.5174H70.9165C70.9391 15.5034 71.2325 13.8731 71.5426 12.0608C71.8069 10.5175 72.3044 8.98972 72.2257 7.62763C72.0445 4.50819 66.8695 5.61164 63.9727 5.69528V5.69528ZM67.9567 15.2438C66.6955 16.4768 63.1552 16.827 63.5174 13.8797C63.818 11.4319 66.4871 10.9117 69.3793 11.265C69.1645 12.6042 68.9178 14.3043 67.9567 15.2438V15.2438Z" fill="white"/>
</svg>
